{
  "accessors": [
    {
      "bufferView": 2,
      "componentType": 5126,
      "count": 65532,
      "max": [
        0.5284029841423035,
        0.18154799938201904,
        0.18446800112724304
      ],
      "min": [
        -0.44960400462150574,
        -0.18389999866485596,
        -0.14116699993610382
      ],
      "type": "VEC3"
    },
    {
      "bufferView": 2,
      "byteOffset": 786384,
      "componentType": 5126,
      "count": 65532,
      "max": [
        0.9998089671134949,
        0.9999966621398926,
        0.9999951124191284
      ],
      "min": [
        -0.999991774559021,
        -0.9999890327453613,
        -1.0
      ],
      "type": "VEC3"
    },
    {
      "bufferView": 1,
      "componentType": 5126,
      "count": 65532,
      "max": [
        0.9485520124435425,
        0.9903579950332642
      ],
      "min": [
        0.002208000048995018,
        2.5999999706982635e-05
      ],
      "type": "VEC2"
    },
    {
      "bufferView": 0,
      "componentType": 5125,
      "count": 65556,
      "type": "SCALAR"
    },
    {
      "bufferView": 2,
      "byteOffset": 1572768,
      "componentType": 5126,
      "count": 65534,
      "max": [
        0.002616999903693795,
        0.12801200151443481,
        0.19833199679851532
      ],
      "min": [
        -0.4090240001678467,
        -0.17628100514411926,
        -0.09226399660110474
      ],
      "type": "VEC3"
    },
    {
      "bufferView": 2,
      "byteOffset": 2359176,
      "componentType": 5126,
      "count": 65534,
      "max": [
        0.9903129935264587,
        0.9998292326927185,
        0.9999995231628418
      ],
      "min": [
        -0.9999204874038696,
        -0.9999892711639404,
        -0.9999970197677612
      ],
      "type": "VEC3"
    },
    {
      "bufferView": 1,
      "byteOffset": 524256,
      "componentType": 5126,
      "count": 65534,
      "max": [
        0.9229289889335632,
        0.9787799715995789
      ],
      "min": [
        0.012055999599397182,
        0.00469199987128377
      ],
      "type": "VEC2"
    },
    {
      "bufferView": 0,
      "byteOffset": 262224,
      "componentType": 5125,
      "count": 65562,
      "type": "SCALAR"
    },
    {
      "bufferView": 2,
      "byteOffset": 3145584,
      "componentType": 5126,
      "count": 65533,
      "max": [
        0.27811399102211,
        0.1824290007352829,
        0.1755169928073883
      ],
      "min": [
        -0.44909799098968506,
        -0.18211999535560608,
        -0.10542300343513489
      ],
      "type": "VEC3"
    },
    {
      "bufferView": 2,
      "byteOffset": 3931980,
      "componentType": 5126,
      "count": 65533,
      "max": [
        0.9998051524162292,
        0.9999998807907104,
        0.9999936819076538
      ],
      "min": [
        -0.9999890327453613,
        -0.9999964237213135,
        -0.9999996423721313
      ],
      "type": "VEC3"
    },
    {
      "bufferView": 1,
      "byteOffset": 1048528,
      "componentType": 5126,
      "count": 65533,
      "max": [
        0.9257820248603821,
        0.8980339765548706
      ],
      "min": [
        0.054097000509500504,
        0.0005130000063218176
      ],
      "type": "VEC2"
    },
    {
      "bufferView": 0,
      "byteOffset": 524472,
      "componentType": 5125,
      "count": 65571,
      "type": "SCALAR"
    },
    {
      "bufferView": 2,
      "byteOffset": 4718376,
      "componentType": 5126,
      "count": 65532,
      "max": [
        0.4135580062866211,
        0.1806119978427887,
        0.1756799966096878
      ],
      "min": [
        -0.010836999863386154,
        -0.18545599281787872,
        -0.14788299798965454
      ],
      "type": "VEC3"
    },
    {
      "bufferView": 2,
      "byteOffset": 5504760,
      "componentType": 5126,
      "count": 65532,
      "max": [
        0.9769188761711121,
        0.999997615814209,
        0.9999991655349731
      ],
      "min": [
        -0.9422304630279541,
        -0.9999852180480957,
        -1.0
      ],
      "type": "VEC3"
    },
    {
      "bufferView": 1,
      "byteOffset": 1572792,
      "componentType": 5126,
      "count": 65532,
      "max": [
        0.9513599872589111,
        0.9705700278282166
      ],
      "min": [
        0.04168500006198883,
        0.0008229999803006649
      ],
      "type": "VEC2"
    },
    {
      "bufferView": 0,
      "byteOffset": 786756,
      "componentType": 5125,
      "count": 65562,
      "type": "SCALAR"
    },
    {
      "bufferView": 2,
      "byteOffset": 6291144,
      "componentType": 5126,
      "count": 65534,
      "max": [
        0.5283179879188538,
        0.1806650012731552,
        0.041790999472141266
      ],
      "min": [
        0.2751080095767975,
        -0.18410399556159973,
        -0.13463899493217468
      ],
      "type": "VEC3"
    },
    {
      "bufferView": 2,
      "byteOffset": 7077552,
      "componentType": 5126,
      "count": 65534,
      "max": [
        0.9999853372573853,
        0.9999762773513794,
        0.9999608993530273
      ],
      "min": [
        -0.9985195398330688,
        -0.9999665021896362,
        -0.9999992847442627
      ],
      "type": "VEC3"
    },
    {
      "bufferView": 1,
      "byteOffset": 2097048,
      "componentType": 5126,
      "count": 65534,
      "max": [
        0.9455609917640686,
        0.999646008014679
      ],
      "min": [
        0.06480000168085098,
        0.005193000193685293
      ],
      "type": "VEC2"
    },
    {
      "bufferView": 0,
      "byteOffset": 1049004,
      "componentType": 5125,
      "count": 65544,
      "type": "SCALAR"
    },
    {
      "bufferView": 2,
      "byteOffset": 7863960,
      "componentType": 5126,
      "count": 65534,
      "max": [
        0.5280830264091492,
        0.09882500022649765,
        0.18403799831867218
      ],
      "min": [
        -0.015287999995052814,
        -0.18412700295448303,
        -0.12486500293016434
      ],
      "type": "VEC3"
    },
    {
      "bufferView": 2,
      "byteOffset": 8650368,
      "componentType": 5126,
      "count": 65534,
      "max": [
        0.9999961853027344,
        0.9992249011993408,
        0.9999792575836182
      ],
      "min": [
        -0.9942519068717957,
        -0.999998927116394,
        -0.9999983310699463
      ],
      "type": "VEC3"
    },
    {
      "bufferView": 1,
      "byteOffset": 2621320,
      "componentType": 5126,
      "count": 65534,
      "max": [
        0.6693680286407471,
        0.9998810291290283
      ],
      "min": [
        0.03870699927210808,
        0.027199000120162964
      ],
      "type": "VEC2"
    },
    {
      "bufferView": 0,
      "byteOffset": 1311180,
      "componentType": 5125,
      "count": 65568,
      "type": "SCALAR"
    },
    {
      "bufferView": 2,
      "byteOffset": 9436776,
      "componentType": 5126,
      "count": 65533,
      "max": [
        0.26327499747276306,
        0.1820410043001175,
        0.16724500060081482
      ],
      "min": [
        -0.44986799359321594,
        -0.14474299550056458,
        -0.1496260017156601
      ],
      "type": "VEC3"
    },
    {
      "bufferView": 2,
      "byteOffset": 10223172,
      "componentType": 5126,
      "count": 65533,
      "max": [
        0.9997689127922058,
        0.9999979734420776,
        0.9995456337928772
      ],
      "min": [
        -0.9991832971572876,
        -0.99998939037323,
        -1.0
      ],
      "type": "VEC3"
    },
    {
      "bufferView": 1,
      "byteOffset": 3145592,
      "componentType": 5126,
      "count": 65533,
      "max": [
        0.9483159780502319,
        0.9901580214500427
      ],
      "min": [
        5.500000042957254e-05,
        0.019423000514507294
      ],
      "type": "VEC2"
    },
    {
      "bufferView": 0,
      "byteOffset": 1573452,
      "componentType": 5125,
      "count": 65541,
      "type": "SCALAR"
    },
    {
      "bufferView": 2,
      "byteOffset": 11009568,
      "componentType": 5126,
      "count": 65533,
      "max": [
        -0.181550994515419,
        0.1824440062046051,
        0.15333299338817596
      ],
      "min": [
        -0.44886499643325806,
        -0.17940199375152588,
        -0.14253200590610504
      ],
      "type": "VEC3"
    },
    {
      "bufferView": 2,
      "byteOffset": 11795964,
      "componentType": 5126,
      "count": 65533,
      "max": [
        0.9982612133026123,
        0.9999972581863403,
        0.9999728202819824
      ],
      "min": [
        -0.9999961853027344,
        -0.9999889135360718,
        -0.9999994039535522
      ],
      "type": "VEC3"
    },
    {
      "bufferView": 1,
      "byteOffset": 3669856,
      "componentType": 5126,
      "count": 65533,
      "max": [
        0.9497870206832886,
        0.9904500246047974
      ],
      "min": [
        0.0005579999997280538,
        0.01760699972510338
      ],
      "type": "VEC2"
    },
    {
      "bufferView": 0,
      "byteOffset": 1835616,
      "componentType": 5125,
      "count": 65553,
      "type": "SCALAR"
    },
    {
      "bufferView": 2,
      "byteOffset": 12582360,
      "componentType": 5126,
      "count": 15541,
      "max": [
        -0.07333800196647644,
        -0.073232002556324,
        0.060749001801013947
      ],
      "min": [
        -0.20141899585723877,
        -0.18071700632572174,
        -0.14218799769878387
      ],
      "type": "VEC3"
    },
    {
      "bufferView": 2,
      "byteOffset": 12768852,
      "componentType": 5126,
      "count": 15541,
      "max": [
        0.9754931330680847,
        0.9937009811401367,
        0.9984177350997925
      ],
      "min": [
        -0.9999381303787231,
        -0.9999953508377075,
        -0.9999939203262329
      ],
      "type": "VEC3"
    },
    {
      "bufferView": 1,
      "byteOffset": 4194120,
      "componentType": 5126,
      "count": 15541,
      "max": [
        0.4943599998950958,
        0.9887480139732361
      ],
      "min": [
        0.129613995552063,
        0.08246000111103058
      ],
      "type": "VEC2"
    },
    {
      "bufferView": 0,
      "byteOffset": 2097828,
      "componentType": 5125,
      "count": 15543,
      "type": "SCALAR"
    }
  ],
  "asset": {
    "extras": {
      "author": "MSU Campus Archaeology Program (https://sketchfab.com/capmsu)",
      "license": "CC-BY-4.0 (http://creativecommons.org/licenses/by/4.0/)",
      "source": "https://sketchfab.com/3d-models/matchbox-mercedes-benz-ambulance-toy-car-d4d1c751bdd14417a35ed79f285a8db6",
      "title": "Matchbox Mercedes Benz Ambulance Toy Car"
    },
    "generator": "Sketchfab-12.68.0",
    "version": "2.0"
  },
  "bufferViews": [
    {
      "buffer": 0,
      "byteLength": 2160000,
      "name": "floatBufferViews",
      "target": 34963
    },
    {
      "buffer": 0,
      "byteLength": 4318448,
      "byteOffset": 2160000,
      "byteStride": 8,
      "name": "floatBufferViews",
      "target": 34962
    },
    {
      "buffer": 0,
      "byteLength": 12955344,
      "byteOffset": 6478448,
      "byteStride": 12,
      "name": "floatBufferViews",
      "target": 34962
    }
  ],
  "buffers": [
    {
      "byteLength": 19433792,
      "uri": "scene.bin"
    }
  ],
  "images": [
    {
      "uri": "textures/Ecto_1_baseColor.jpeg"
    }
  ],
  "materials": [
    {
      "doubleSided": true,
      "name": "Ecto_1",
      "pbrMetallicRoughness": {
        "baseColorTexture": {
          "index": 0
        },
        "metallicFactor": 0.0,
        "roughnessFactor": 0.527165186794742
      }
    }
  ],
  "meshes": [
    {
      "name": "Object_0",
      "primitives": [
        {
          "attributes": {
            "NORMAL": 1,
            "POSITION": 0,
            "TEXCOORD_0": 2
          },
          "indices": 3,
          "material": 0,
          "mode": 4
        }
      ]
    },
    {
      "name": "Object_1",
      "primitives": [
        {
          "attributes": {
            "NORMAL": 5,
            "POSITION": 4,
            "TEXCOORD_0": 6
          },
          "indices": 7,
          "material": 0,
          "mode": 4
        }
      ]
    },
    {
      "name": "Object_2",
      "primitives": [
        {
          "attributes": {
            "NORMAL": 9,
            "POSITION": 8,
            "TEXCOORD_0": 10
          },
          "indices": 11,
          "material": 0,
          "mode": 4
        }
      ]
    },
    {
      "name": "Object_3",
      "primitives": [
        {
          "attributes": {
            "NORMAL": 13,
            "POSITION": 12,
            "TEXCOORD_0": 14
          },
          "indices": 15,
          "material": 0,
          "mode": 4
        }
      ]
    },
    {
      "name": "Object_4",
      "primitives": [
        {
          "attributes": {
            "NORMAL": 17,
            "POSITION": 16,
            "TEXCOORD_0": 18
          },
          "indices": 19,
          "material": 0,
          "mode": 4
        }
      ]
    },
    {
      "name": "Object_5",
      "primitives": [
        {
          "attributes": {
            "NORMAL": 21,
            "POSITION": 20,
            "TEXCOORD_0": 22
          },
          "indices": 23,
          "material": 0,
          "mode": 4
        }
      ]
    },
    {
      "name": "Object_6",
      "primitives": [
        {
          "attributes": {
            "NORMAL": 25,
            "POSITION": 24,
            "TEXCOORD_0": 26
          },
          "indices": 27,
          "material": 0,
          "mode": 4
        }
      ]
    },
    {
      "name": "Object_7",
      "primitives": [
        {
          "attributes": {
            "NORMAL": 29,
            "POSITION": 28,
            "TEXCOORD_0": 30
          },
          "indices": 31,
          "material": 0,
          "mode": 4
        }
      ]
    },
    {
      "name": "Object_8",
      "primitives": [
        {
          "attributes": {
            "NORMAL": 33,
            "POSITION": 32,
            "TEXCOORD_0": 34
          },
          "indices": 35,
          "material": 0,
          "mode": 4
        }
      ]
    }
  ],
  "nodes": [
    {
      "children": [
        1
      ],
      "matrix": [
        1.0,
        0.0,
        0.0,
        0.0,
        0.0,
        2.220446049250313e-16,
        -1.0,
        0.0,
        0.0,
        1.0,
        2.220446049250313e-16,
        0.0,
        0.0,
        0.0,
        0.0,
        1.0
      ],
      "name": "Sketchfab_model"
    },
    {
      "children": [
        2,
        3,
        4,
        5,
        6,
        7,
        8,
        9,
        10
      ],
      "name": "Ecto_1.obj.cleaner.materialmerger.gles"
    },
    {
      "mesh": 0,
      "name": "Object_2"
    },
    {
      "mesh": 1,
      "name": "Object_3"
    },
    {
      "mesh": 2,
      "name": "Object_4"
    },
    {
      "mesh": 3,
      "name": "Object_5"
    },
    {
      "mesh": 4,
      "name": "Object_6"
    },
    {
      "mesh": 5,
      "name": "Object_7"
    },
    {
      "mesh": 6,
      "name": "Object_8"
    },
    {
      "mesh": 7,
      "name": "Object_9"
    },
    {
      "mesh": 8,
      "name": "Object_10"
    }
  ],
  "samplers": [
    {
      "magFilter": 9729,
      "minFilter": 9987,
      "wrapS": 10497,
      "wrapT": 10497
    }
  ],
  "scene": 0,
  "scenes": [
    {
      "name": "Sketchfab_Scene",
      "nodes": [
        0
      ]
    }
  ],
  "textures": [
    {
      "sampler": 0,
      "source": 0
    }
  ]
}
